<svg width="178" height="40" fill="none" xmlns="http://www.w3.org/2000/svg"><path fill-rule="evenodd" clip-rule="evenodd" d="M-110.728-106.005v13.368h400.524v-26.736h-400.524v13.368zm88.406 1.19c-.579.578-.887.543-.424-.049.192-.245.452-.424.614-.424.254 0 .235.048-.19.473zm35.625-.016c-.243.251-.522.456-.619.456-.116 0-.057-.156.172-.456.2-.264.462-.457.619-.457.241 0 .223.05-.172.457zm40.15.016c-.579.578-.888.543-.424-.049.192-.245.451-.424.614-.424.254 0 .235.048-.19.473zm11.236-.016c-.243.251-.522.456-.619.456-.116 0-.057-.156.172-.456.2-.264.462-.457.619-.457.241 0 .223.05-.172.457zm-74.08.913c.209.107.543.411.744.674.335.44.365.573.365 1.608 0 1.036-.03 1.169-.365 1.608-.476.625-.973.87-1.76.87-1.071 0-1.886-.722-2.095-1.858-.315-1.704.628-3.098 2.094-3.098.352 0 .81.088 1.018.196zm35.214 0c.208.107.543.411.744.674.314.412.37.618.403 1.468.031.836-.009 1.066-.261 1.497-.44.752-.89 1.03-1.764 1.092-.628.044-.825.002-1.196-.253-.621-.426-.905-.857-1.038-1.576-.314-1.704.628-3.098 2.095-3.098.352 0 .81.088 1.017.196zm15.051-.014c.24.1.604.404.811.675.347.455.376.578.376 1.621 0 1.043-.029 1.167-.376 1.622-.895 1.173-2.609 1.145-3.491-.057-.512-.697-.517-2.435-.008-3.121.636-.86 1.7-1.153 2.688-.74zm66.776 0c.239.1.604.404.811.675.347.455.376.578.376 1.621 0 1.043-.029 1.167-.376 1.622-.895 1.173-2.609 1.145-3.491-.057-.512-.697-.517-2.435-.008-3.121.636-.86 1.7-1.153 2.688-.74zm5.16.011c.458.238.918.802.918 1.129 0 .382-.363.285-.593-.158-.21-.408-.859-.772-1.372-.772-.449 0-1.095.367-1.322.752-.267.453-.418 1.449-.3 1.984.13.593.782 1.282 1.306 1.38.958.18 1.888-.514 1.889-1.41 0-.352-.015-.359-.782-.359-.609 0-.783-.043-.783-.196 0-.157.203-.195 1.044-.195h1.043v1.239c0 1.014-.035 1.239-.196 1.239-.125 0-.195-.126-.195-.349v-.349l-.294.268c-.461.42-.819.56-1.428.56-1.304 0-2.083-.926-2.083-2.475 0-1.091.329-1.783 1.048-2.199.566-.329 1.555-.37 2.1-.089zm5.091.003c.208.107.542.411.743.674.336.44.366.573.366 1.608 0 1.036-.03 1.169-.366 1.608-.476.625-.973.87-1.76.87-1.071 0-1.885-.722-2.095-1.858-.315-1.704.628-3.098 2.095-3.098.351 0 .809.088 1.017.196zm-165.103.316c.453.453.5.998.125 1.474l-.256.325.31.292c.403.378.51.836.327 1.39-.217.658-.665.833-2.14.833h-1.246v-4.695h1.25c1.206 0 1.261.013 1.63.381zm4.105 1.216c.339.879.752 1.939.918 2.356l.303.758-.275-.04c-.195-.03-.347-.237-.533-.726l-.26-.685h-2.128l-.243.718c-.178.52-.31.717-.484.717-.132 0-.24-.026-.24-.059 0-.082 1.682-4.378 1.77-4.52.04-.064.18-.116.314-.116.19 0 .377.349.858 1.597zm4.626-1.4c.685.354.74 1.552.095 2.049-.162.124-.23.227-.152.229.207.004.445.598.445 1.109 0 .243.057.592.127.776.114.3.096.335-.177.335-.275 0-.312-.074-.383-.761-.133-1.271-.192-1.321-1.556-1.324l-.75-.002v1.053c0 .933-.026 1.048-.228 1.01-.206-.04-.232-.275-.264-2.358l-.035-2.313h1.248c.86 0 1.367.061 1.63.197zm4.562-.002c0 .161-.232.196-1.305.196h-1.304v1.695h1.174c.956 0 1.174.037 1.174.196s-.218.196-1.174.196h-1.174v1.826h1.37c1.13 0 1.37.034 1.37.195 0 .164-.27.196-1.631.196h-1.63v-4.695h1.565c1.304 0 1.565.032 1.565.195zm1.687 1.851l.709 2.046.67-2.014c.564-1.69.715-2.02.947-2.054.258-.038.224.11-.503 2.204-.429 1.234-.81 2.294-.848 2.355-.038.062-.176.112-.305.112-.189 0-.39-.441-.992-2.185a1280.04 1280.04 0 00-.814-2.347c-.033-.093.047-.163.185-.163.195 0 .378.394.95 2.046zm5.003-.009l1.33 2.037.036-2.037c.03-1.692.069-2.037.229-2.037.162 0 .192.365.192 2.347 0 2.277-.008 2.348-.266 2.348-.2 0-.592-.497-1.565-1.984-.715-1.092-1.301-1.928-1.304-1.859-.003.069-.017.947-.033 1.95-.024 1.62-.053 1.829-.255 1.868-.211.04-.229-.138-.229-2.313 0-2.289.008-2.357.267-2.357.202 0 .596.503 1.598 2.037zm5.38-.44c.34.879.752 1.939.919 2.356l.302.758-.274-.04c-.196-.03-.348-.237-.533-.726l-.26-.685h-2.128l-.244.718c-.177.52-.31.717-.483.717-.132 0-.24-.024-.24-.054 0-.076 1.694-4.402 1.775-4.533.036-.06.175-.108.309-.108.189 0 .376.349.858 1.597zm8.412-1.258c.151.151.306.51.344.797.06.449.015.584-.323.963-.377.421-.441.443-1.45.489l-1.055.048v1.029c0 .828-.038 1.03-.196 1.03-.166 0-.195-.35-.195-2.36v-2.36l1.3.045c1.113.038 1.34.085 1.575.319zm9.384-.162c0 .097-.678 1.066-1.507 2.152l-1.507 1.975h1.507c1.253 0 1.507.033 1.507.195 0 .165-.29.196-1.826.196-1.376 0-1.825-.04-1.821-.163.002-.09.679-1.044 1.504-2.12l1.499-1.956-1.373-.037c-1.103-.03-1.374-.074-1.374-.228 0-.158.293-.191 1.696-.191 1.342 0 1.695.037 1.695.177zm1.435 2.17c0 2.26-.01 2.348-.261 2.348s-.26-.087-.26-2.348c0-2.26.009-2.347.26-2.347s.26.087.26 2.347zm4.173-2.152c0 .151-.166.196-.717.196H.13v2.152c0 2.065-.01 2.152-.261 2.152-.25 0-.261-.087-.261-2.152v-2.152h-.717c-.551 0-.718-.045-.718-.196 0-.164.276-.195 1.696-.195s1.695.031 1.695.195zm1.174 2.152c0 2.26-.01 2.348-.26 2.348-.252 0-.262-.087-.262-2.348 0-2.26.01-2.347.261-2.347s.261.087.261 2.347zm1.948-.301l.71 2.046.67-2.014c.563-1.69.715-2.02.946-2.054.258-.038.224.11-.503 2.204-.429 1.234-.81 2.294-.848 2.355-.038.062-.175.112-.305.112-.189 0-.389-.441-.992-2.185-.416-1.201-.782-2.258-.814-2.347-.032-.093.047-.163.185-.163.195 0 .379.394.951 2.046zm5.134-.009l1.33 2.037.036-2.037c.03-1.692.069-2.037.228-2.037.163 0 .193.365.193 2.347 0 2.277-.008 2.348-.267 2.348-.2 0-.591-.497-1.565-1.984-1.273-1.946-1.299-1.974-1.304-1.468-.036 3.142-.056 3.382-.288 3.427-.21.04-.228-.138-.228-2.313 0-2.289.008-2.357.267-2.357.201 0 .596.503 1.598 2.037zm3.482.31c0 2.26-.01 2.348-.26 2.348-.252 0-.261-.087-.261-2.348 0-2.26.01-2.347.26-2.347.252 0 .261.087.261 2.347zm5.348-1.369v.978h2.739v-.978c0-.783.038-.978.195-.978.167 0 .196.348.196 2.347 0 2-.03 2.348-.196 2.348-.16 0-.196-.218-.196-1.174v-1.174h-2.738v1.174c0 1.087-.02 1.174-.261 1.174-.252 0-.261-.087-.261-2.348 0-2.26.01-2.347.26-2.347.238 0 .262.087.262.978zm12.132-.781c.685.354.74 1.552.094 2.049-.161.124-.23.227-.151.229.207.004.445.598.445 1.109 0 .243.059.596.13.785.12.313.105.34-.16.302-.251-.036-.311-.163-.435-.922-.08-.484-.187-.923-.24-.976-.052-.052-.531-.118-1.065-.144l-.969-.049v1.067c0 .946-.026 1.062-.228 1.023-.206-.04-.232-.274-.264-2.357l-.036-2.313h1.249c.86 0 1.367.061 1.63.197zm2.083 2.15c0 2.26-.01 2.348-.26 2.348-.252 0-.261-.087-.261-2.348 0-2.26.01-2.347.26-2.347.252 0 .261.087.261 2.347zm4.435-2.17c0 .097-.678 1.066-1.507 2.152l-1.507 1.975h1.507c1.252 0 1.507.033 1.507.195 0 .165-.29.196-1.826.196-1.376 0-1.825-.04-1.822-.163.002-.09.681-1.044 1.51-2.12l1.506-1.956-1.38-.037c-1.108-.03-1.38-.074-1.38-.228 0-.158.293-.191 1.696-.191 1.342 0 1.696.037 1.696.177zm7.602 1.871l1.332 2.048.035-2.048c.03-1.702.069-2.048.229-2.048.162 0 .192.365.192 2.347 0 2.277-.008 2.348-.266 2.348-.2 0-.592-.497-1.565-1.984-.715-1.092-1.301-1.899-1.304-1.794-.003.105-.018.983-.033 1.95-.024 1.558-.053 1.764-.256 1.803-.21.04-.228-.138-.228-2.313 0-3.119.033-3.124 1.864-.309zm5.831-1.853c0 .151-.167.196-.717.196h-.718v2.152c0 2.065-.01 2.152-.26 2.152s-.261-.087-.261-2.152v-2.152h-.718c-.55 0-.717-.045-.717-.196 0-.164.275-.195 1.696-.195 1.42 0 1.695.031 1.695.195zm3.203 1.402c.338.879.751 1.939.918 2.356l.302.758-.274-.04c-.196-.03-.348-.237-.534-.726l-.259-.685h-2.128l-.244.718c-.177.52-.31.717-.483.717-.132 0-.24-.026-.24-.059 0-.082 1.681-4.378 1.77-4.52.039-.064.18-.116.313-.116.19 0 .377.349.858 1.597zm2.405.555v2.152h1.24c1.014 0 1.238.035 1.238.195 0 .163-.253.196-1.5.196h-1.5v-2.348c0-2.26.01-2.347.261-2.347.25 0 .261.087.261 2.152zm4.864-.104l1.331 2.048.036-2.048c.03-1.702.069-2.048.228-2.048.163 0 .193.365.193 2.347 0 2.277-.008 2.348-.267 2.348-.2 0-.591-.497-1.565-1.984l-1.298-1.984v1.984c0 1.897-.012 1.984-.261 1.984-.251 0-.261-.087-.261-2.348 0-3.108.034-3.113 1.864-.299zm3.483.299c0 2.26-.01 2.348-.26 2.348-.252 0-.261-.087-.261-2.348 0-2.26.01-2.347.26-2.347.252 0 .261.087.261 2.347zm3.774-.301l.71 2.046.67-2.014c.563-1.69.715-2.02.946-2.054.258-.038.224.11-.503 2.204-.428 1.234-.81 2.294-.848 2.355-.038.062-.175.112-.305.112-.189 0-.389-.441-.992-2.185-.416-1.201-.782-2.258-.814-2.347-.032-.093.047-.163.185-.163.195 0 .379.394.951 2.046zm5.82-.449c.338.879.751 1.939.917 2.356l.303.758-.274-.04c-.196-.03-.348-.237-.534-.726l-.26-.685h-2.127l-.244.718c-.177.52-.31.717-.484.717-.132 0-.24-.024-.24-.054 0-.076 1.694-4.402 1.775-4.533.037-.06.176-.108.31-.108.188 0 .376.349.857 1.597zm4.625-1.4c.686.354.74 1.552.095 2.049-.162.124-.23.227-.151.229.206.004.444.598.444 1.109 0 .243.058.592.128.776.114.3.095.335-.18.335-.282 0-.316-.07-.396-.819-.126-1.177-.155-1.203-1.323-1.203h-.999l-.017.978c-.013.775-.057.979-.212.979-.165 0-.201-.36-.231-2.315l-.036-2.315h1.248c.86 0 1.368.061 1.63.197zm2.214 2.15c0 2.26-.01 2.348-.26 2.348-.252 0-.261-.087-.261-2.348 0-2.26.01-2.347.26-2.347.252 0 .261.087.261 2.347zm3.594-.75c.339.879.752 1.939.918 2.356l.302.758-.274-.04c-.195-.03-.348-.237-.533-.726l-.26-.685h-2.128l-.243.718c-.178.52-.31.717-.484.717-.132 0-.24-.024-.24-.054 0-.076 1.694-4.402 1.775-4.533.037-.06.176-.108.309-.108.19 0 .377.349.858 1.597zm3.747.443l1.332 2.04.036-2.04c.03-1.695.069-2.04.228-2.04.163 0 .193.365.193 2.347 0 2.277-.008 2.348-.266 2.348-.2 0-.592-.497-1.566-1.984l-1.298-1.984v1.984c0 1.897-.012 1.984-.261 1.984-.251 0-.261-.087-.261-2.348 0-3.104.032-3.109 1.863-.307zm5.832-1.845c0 .151-.167.196-.718.196h-.717v2.152c0 2.065-.01 2.152-.26 2.152s-.261-.087-.261-2.152v-2.152h-.718c-.55 0-.717-.045-.717-.196 0-.164.275-.195 1.695-.195s1.696.031 1.696.195zm3.202 1.402c.339.879.752 1.939.918 2.356l.303.758-.274-.04c-.196-.03-.348-.237-.534-.726l-.26-.685h-2.127l-.244.718c-.177.52-.31.717-.484.717-.131 0-.24-.026-.24-.059 0-.082 1.682-4.378 1.77-4.52.04-.064.181-.116.314-.116.19 0 .377.349.858 1.597zm4.101.555v2.152h1.239c1.015 0 1.239.035 1.239.195 0 .163-.253.196-1.499.196h-1.5v-2.348c0-2.26.009-2.347.261-2.347.25 0 .26.087.26 2.152zm21.259-1.957c0 .151-.167.196-.717.196h-.717v2.152c0 2.065-.011 2.152-.261 2.152-.251 0-.261-.087-.261-2.152v-2.152h-.717c-.551 0-.718-.045-.718-.196 0-.164.276-.195 1.696-.195s1.695.031 1.695.195zm1.378.848c.347.574.673 1.043.725 1.043.052 0 .378-.468.724-1.04.486-.802.697-1.04.924-1.043l.295-.003-.347.554c-.191.305-.573.889-.849 1.297-.48.709-.502.79-.502 1.793 0 .964-.022 1.05-.261 1.05-.239 0-.261-.086-.261-1.047v-1.048l-.782-1.23c-.431-.676-.783-1.261-.783-1.299 0-.039.109-.07.243-.07.164 0 .447.338.874 1.043zm6.193-.704c.151.151.306.51.344.797.06.449.015.584-.324.963-.376.421-.44.443-1.449.489l-1.055.048v1.029c0 .828-.039 1.03-.196 1.03-.167 0-.196-.35-.196-2.36v-2.36l1.301.045c1.113.038 1.341.085 1.575.319zm1.559 1.415c0 1.042.06 1.888.149 2.083.295.647 1.627.765 2.148.19.209-.23.256-.549.311-2.115.058-1.652.09-1.849.303-1.89.223-.042.235.076.196 1.92l-.042 1.966-.427.426c-.399.398-.484.426-1.323.426-1.535 0-1.837-.502-1.837-3.061 0-1.612.013-1.699.261-1.699s.261.087.261 1.754zm-143.018-1.374c-1.023.44-1.4 2.149-.73 3.302.425.73 1.542.938 2.317.43.971-.636 1.023-2.648.09-3.492-.294-.266-1.286-.408-1.677-.24zm35.214 0c-1.147.492-1.447 2.492-.525 3.498.78.85 2.087.661 2.642-.384.476-.897.191-2.439-.54-2.918-.386-.253-1.206-.355-1.577-.196zm15.129 0c-1.144.491-1.447 2.492-.53 3.493.754.822 2.039.656 2.612-.336.516-.894.248-2.468-.505-2.961-.386-.253-1.207-.355-1.577-.196zm66.775 0c-1.143.491-1.446 2.492-.529 3.493.753.822 2.038.656 2.611-.336.517-.894.249-2.468-.504-2.961-.386-.253-1.207-.355-1.578-.196zm10.173 0c-1.023.44-1.401 2.149-.73 3.302.425.73 1.542.938 2.317.43.971-.636 1.024-2.648.091-3.492-.294-.266-1.287-.408-1.678-.24zm-165.82.859v.847l.75-.002c1.072-.002 1.402-.201 1.402-.845 0-.644-.33-.843-1.402-.846l-.75-.002v.848zm8.738.065v.941l.993-.05c.849-.043 1.028-.094 1.239-.355.322-.398.313-.827-.026-1.133-.202-.183-.523-.26-1.239-.296l-.967-.049v.942zm24.91.017v.93l1-.064c1.143-.073 1.385-.259 1.322-1.011-.05-.585-.426-.781-1.506-.783l-.815-.002v.93zm44.332-.683c-.006.151-.012.451-.012.666 0 1.017-.08.947 1.016.891.85-.043 1.028-.094 1.24-.355.322-.398.312-.827-.026-1.133-.202-.183-.524-.26-1.24-.296-.908-.046-.967-.032-.978.227zm48.123.065a17.17 17.17 0 00-.014.601c0 .143.006.414.014.601l.015.34.992-.05c.849-.043 1.028-.094 1.239-.355.323-.398.313-.827-.026-1.133-.202-.183-.523-.26-1.239-.296-.964-.048-.966-.048-.98.292zm51.401.618v.93l.999-.064c1.143-.073 1.385-.259 1.321-1.011-.049-.585-.425-.781-1.505-.783l-.815-.002v.93zm-172.341.211l-.435 1.174c-.045.12.166.163.801.163.474 0 .862-.054.862-.119 0-.121-.785-2.229-.83-2.229-.013 0-.192.455-.398 1.011zm21.258 0l-.434 1.174c-.045.12.166.163.8.163.475 0 .862-.054.862-.119 0-.121-.784-2.229-.83-2.229-.013 0-.192.455-.398 1.011zm75.775 0l-.434 1.174c-.045.12.166.163.8.163.474 0 .862-.054.862-.119 0-.121-.784-2.229-.83-2.229-.013 0-.192.455-.398 1.011zm20.346 0l-.435 1.174c-.044.12.166.163.801.163.474 0 .862-.054.862-.119 0-.121-.785-2.229-.83-2.229-.013 0-.192.455-.398 1.011zm10.434 0l-.435 1.174c-.045.12.166.163.801.163.474 0 .862-.054.862-.119 0-.121-.785-2.229-.83-2.229-.013 0-.193.455-.398 1.011zm12.78.003l-.434 1.171c-.044.12.166.163.801.163.474 0 .862-.044.863-.098 0-.146-.683-2.039-.776-2.149-.044-.053-.249.358-.454.913zm-145.756 1.856v.913l.815-.013c1.103-.018 1.443-.131 1.583-.529.304-.866-.229-1.284-1.635-1.284h-.763v.913zm-6.912-.652c0 .085-2.848.13-8.282.13s-8.282-.045-8.282-.13c0-.086 2.848-.131 8.282-.131s8.282.045 8.282.131zm37.17 1.936c0 .35-.085.576-.283.75-.28.245-.282.245-.18-.013.206-.528.229-.717.087-.717-.08 0-.146-.118-.146-.261 0-.174.087-.26.261-.26.216 0 .26.086.26.5zm34.431 0c0 .35-.085.576-.283.75-.279.245-.281.245-.18-.013.206-.528.23-.717.087-.717-.08 0-.146-.118-.146-.261 0-.174.087-.26.261-.26.216 0 .261.086.261.5zM6.065.217c-.873.585-.848.34-.848 8.31 0 7.03-.006 7.2-.255 7.28-.14.044-.41.264-.598.489-.298.354-.333.485-.263 1.003.105.781.105 1.146.001 1.73-.056.315-.02.612.104.86.159.32.161.418.013.62-.23.314-.225 1.116.008 1.435.158.216.156.303-.015.633-.38.734-.02 1.767.712 2.047l.293.112v8.704l2.03 2.89c1.293 1.84 2.11 2.888 2.25 2.886.136-.002 1.003-1.11 2.27-2.902l2.052-2.898.003-4.337.003-4.336.359-.006c.54-.009 1.237-.295 1.805-.74l.51-.4 2.347-.07c2.855-.084 3.933-.322 6-1.327 5.946-2.894 8.386-9.35 5.832-15.43-.534-1.27-1.24-2.29-2.37-3.427-1.124-1.13-2.344-1.9-3.916-2.474-2.261-.825-2.11-.813-10.371-.866-7.4-.047-7.573-.042-7.956.214zM20.41.62c1.71.161 2.788.397 3.956.864C27.835 2.872 30.115 5.7 30.9 9.587c.204 1.011.17 3.149-.068 4.303-.928 4.495-4.865 8.13-9.607 8.87l-.75.117v-.961l1.142-.28c3.842-.939 6.82-3.81 7.744-7.464.363-1.436.297-3.871-.144-5.276-1.07-3.41-3.425-5.615-7.046-6.596-1.075-.292-1.308-.302-7.664-.35l-6.555-.049-.39.39-.39.39v13.062H5.87v-7.18c0-4.888.045-7.266.14-7.445.32-.597.598-.622 6.968-.628 3.3-.002 6.645.056 7.434.131zm.985 2.156c2.2.417 3.83 1.274 5.191 2.73 2.68 2.865 3.2 7.192 1.298 10.795-.568 1.075-2.369 2.89-3.566 3.594-.975.574-2.428 1.133-3.308 1.274l-.535.086v-1.181l.685-.162c2.445-.574 4.741-2.413 5.802-4.647 1.87-3.934.152-8.904-3.694-10.69-.365-.17-1.128-.435-1.696-.59-.961-.263-1.392-.286-6.314-.331-4.189-.039-5.349-.014-5.608.122l-.326.172-.065 5.865-.065 5.865-.685.04-.685.04V9.32c0-4.832.04-6.475.157-6.593.117-.117 1.684-.156 6.246-.156 4.986 0 6.284.037 7.168.205zm.189 1.806c2.17.629 3.809 1.938 4.671 3.733 1.446 3.01 1.033 6.195-1.105 8.528-1.084 1.184-2.87 2.245-4.186 2.49l-.489.091v-.652c0-.603.027-.66.359-.742.796-.198 2.03-.904 2.76-1.58 1.481-1.37 2.098-2.764 2.098-4.738 0-3.14-1.842-5.495-4.857-6.206-1.075-.253-9.215-.288-9.463-.04-.116.117-.157 1.455-.157 5.217v5.06H9.782v-5.651c0-3.109.043-5.695.097-5.749.053-.053 2.533-.072 5.51-.042 4.644.047 5.525.087 6.196.281zm-.494 1.6c2.205.737 3.547 2.3 3.96 4.614.44 2.455-.904 4.985-3.275 6.171-.52.26-1.023.472-1.122.472-.13 0-.178-.203-.178-.752v-.752l.623-.221c1.465-.52 2.53-2.082 2.618-3.84.094-1.865-.69-3.288-2.254-4.086l-.894-.457h-7.33l-.034 4.206-.035 4.206h-1.3V5.81l4.206.051c3.826.047 4.279.076 5.016.322zm-.284 1.954c.88.3 1.777 1.217 2.091 2.137.689 2.02-.143 4.025-2.014 4.854-.627.278-2.221.453-2.803.307-.186-.047-.59-.419-.939-.861-.76-.97-1.617-1.438-2.625-1.438h-.692V7.918h3.172c2.619 0 3.283.038 3.81.218zm19.05 1.945a1.25 1.25 0 00-.078.362c0 .207 3.163 2.562 3.441 2.562.17 0 2.862-1.87 3.39-2.355.187-.171-.03-.775-.28-.775-.124 0-.86.381-1.636.848-.776.466-1.44.847-1.475.847-.035 0-.689-.382-1.453-.848-1.44-.879-1.774-.99-1.908-.641zM15.63 13.973c.191.1.685.563 1.097 1.03.477.541.915.905 1.206 1.001l.458.151v6.762h-.84c-.994 0-1.344.116-2.05.684l-.528.424-4.895.037c-4.493.035-4.915.02-5.144-.189-.176-.159-.239-.362-.211-.689l.039-.463.945-.038c.907-.037.946-.052.946-.359 0-.306-.036-.32-.822-.32-.908 0-1.135-.133-1.135-.668 0-.703.089-.767 1.058-.767.872 0 .899-.01.899-.326 0-.313-.033-.326-.822-.326-.927 0-1.135-.131-1.135-.717 0-.587.208-.718 1.135-.718.735 0 .822-.027.822-.26 0-.234-.087-.261-.822-.261-.925 0-1.136-.132-1.133-.711.005-.962.123-.985 5.05-.985 3.16 0 4.328-.04 4.443-.156.237-.237.188-.605-.104-.787-.213-.133-.261-.304-.261-.932v-.77l.728.086c.401.048.885.167 1.076.267zm25.196 1.32c-1.383.387-2.37 1.185-2.893 2.342-.422.93-.418 2.61.008 3.486.688 1.414 1.748 2.077 5.184 3.24 2.701.915 3.368 1.25 4.146 2.082 1.281 1.37 1.117 3.184-.393 4.331-1.722 1.31-4.237 1.399-7.526.269-1.158-.398-1.346-.335-1.481.5l-.074.456 1.09.418c1.523.584 2.81.828 4.48.846 2.286.024 3.74-.467 5.04-1.705 1.022-.972 1.346-1.733 1.348-3.164 0-.947-.052-1.215-.359-1.842-.438-.893-1.367-1.788-2.396-2.307-.422-.213-1.735-.724-2.918-1.135-3.162-1.1-3.954-1.54-4.53-2.519a2.554 2.554 0 01-.019-2.512c.24-.435.492-.658 1.087-.962.759-.387.813-.395 2.608-.383 1.53.01 2.038.068 3.073.347.681.183 1.337.373 1.457.421.245.098.555-.287.698-.869.11-.445-.212-.624-1.98-1.098-1.637-.44-4.508-.562-5.65-.242zm11.43.016c-.047.048-.086 4.041-.086 8.875v8.788l.75-.039.75-.04.065-3.08.065-3.08 3.326 3.111 3.325 3.112 1.011.002c.556 0 1.011-.022 1.011-.05 0-.04-6.32-6.033-6.694-6.348-.06-.05 1.329-1.403 3.085-3.008 1.757-1.605 3.18-2.976 3.163-3.048-.038-.16-1.026-.242-1.609-.133-.326.061-1.176.768-3.524 2.932L53.8 26.154l-.034-5.291c-.023-3.642-.08-5.346-.18-5.467-.147-.178-1.171-.245-1.33-.087zm26.149.084c-.114.137-.144 2.382-.12 8.842l.034 8.659.751.039.75.04-.033-8.843-.033-8.843-.599-.039c-.395-.025-.65.024-.75.145zm20.91.114c-.036.094-.05 4.045-.032 8.78l.034 8.607h3.913l.035-2.902.035-2.902h1.861c2.561 0 3.581-.286 5.128-1.441.789-.589 1.66-1.835 1.943-2.778.111-.37.202-1.141.203-1.715.003-2.03-.845-3.729-2.37-4.748-1.41-.941-1.603-.972-6.412-1.025-3.439-.038-4.285-.014-4.338.124zm57.011.048c-.121.316-.092 17.052.03 17.245.08.125.556.158 1.922.13l1.815-.036V15.417l-1.843-.036c-1.595-.03-1.854-.008-1.924.174zm-136.5 3.905v3.457h-.783v-6.765l.358-.054c.198-.03.374-.063.392-.074.018-.01.032 1.536.032 3.436zm87.049-.314c.345.087.734.317.997.588.377.39.438.549.482 1.26.042.69.003.882-.255 1.259-.624.91-.836.985-2.922 1.035l-1.882.044v-2.077c0-1.142.039-2.116.087-2.164.142-.142 2.881-.099 3.493.055zM67.82 20.414c-2.56.67-4.16 2.784-4.38 5.788-.197 2.685 1.051 5.286 3.035 6.327 1.03.54 1.971.744 3.367.728 3.785-.043 6.135-2.588 6.117-6.623-.01-2.482-1.195-4.715-3.03-5.714-1.334-.726-3.46-.937-5.109-.506zm17.769.018c-.52.141-1.212.374-1.536.517-.542.24-.583.29-.505.625.168.717.303.748 1.504.348.91-.303 1.32-.365 2.462-.37 1.683-.006 2.115.188 2.608 1.171.257.513.336.896.373 1.81.043 1.088.03 1.155-.196 1.062-.432-.177-3.86-.243-4.58-.089-1.43.307-2.46 1.019-2.974 2.053-.201.406-.252.787-.252 1.879 0 1.219.036 1.433.326 1.95.378.673 1.23 1.368 1.927 1.573.83.243 2.413.307 3.173.128.914-.215 1.827-.678 2.452-1.243.275-.249.532-.452.57-.452.038 0 .11.29.159.646.099.72.297.96.743.897l.3-.043v-4.695c0-4.311-.02-4.76-.255-5.478-.323-.988-1.166-1.877-2.096-2.209-1.004-.358-3.032-.397-4.203-.08zm32.313-.084c-2.684.765-4.343 3.159-4.357 6.286-.017 4.011 2.408 6.586 6.204 6.586 2.629 0 4.564-1.088 5.565-3.13 1.795-3.662.367-8.238-2.978-9.541-.893-.349-3.503-.467-4.434-.201zm15.052.014a7.076 7.076 0 00-1.097.48c-.441.247-.575.275-.623.135-.034-.099-.172-.29-.306-.424-.327-.327-2.071-.356-2.387-.04-.182.182-.205 1.152-.205 8.712 0 6.443.038 8.545.156 8.664.105.105.696.156 1.8.156s1.695-.05 1.8-.156c.111-.111.156-.905.156-2.742V32.56l.424.232c.342.187.739.231 2.054.231 1.498 0 1.692-.028 2.381-.351 1.51-.708 2.568-2.042 3.032-3.822.247-.946.277-3.142.055-4.047-.572-2.343-2.13-4.016-4.178-4.488-.785-.18-2.416-.156-3.062.046zm33.842.005c-2.003.552-3.509 2.173-4.107 4.42-.243.91-.231 2.927.023 3.905.752 2.905 2.921 4.528 6.052 4.528 3.792 0 6.259-2.57 6.259-6.521 0-3.068-1.593-5.475-4.145-6.264-.977-.301-3.107-.337-4.082-.068zm-24.407.082c-.209.122-.228.44-.228 3.704 0 4.385.102 5.282.752 6.585.794 1.59 1.997 2.3 4.145 2.445 1.146.077 2.236-.153 3.029-.64l.428-.262.266.34c.252.318.334.338 1.418.338.928 0 1.165-.04 1.229-.206.044-.114.079-2.903.079-6.198v-5.992l-.359-.137c-.558-.214-3.273-.1-3.426.143-.071.112-.124 1.957-.126 4.326l-.001 4.13-.473.292c-.626.387-1.575.476-2.112.198-.831-.43-.868-.627-.909-4.968-.033-3.46-.062-3.932-.253-4.076-.266-.2-3.121-.219-3.459-.022zm-71.08 1.362c1.05.311 1.889 1.062 2.437 2.177.805 1.64.904 3.177.306 4.783-.52 1.394-1.28 2.267-2.443 2.805-.892.412-2.934.393-3.89-.037-1.337-.603-2.311-2.04-2.66-3.927-.338-1.821.476-4.164 1.797-5.172 1.029-.784 2.996-1.062 4.453-.63zm49.737 2.187c.243.164.589.56.769.88.284.508.326.74.326 1.831 0 1.162-.028 1.294-.391 1.878-.481.77-1.08 1.112-1.957 1.112-.872 0-1.475-.34-1.949-1.101-.332-.533-.391-.771-.434-1.747-.045-1.036-.019-1.19.319-1.848.503-.977 1.02-1.304 2.064-1.304.627 0 .909.067 1.253.299zm14.426.043c.2.147.51.527.689.844.285.502.326.733.326 1.814 0 1.078-.042 1.312-.321 1.8-.478.835-1.047 1.134-2.157 1.134-.502 0-1.104-.08-1.337-.178l-.424-.18v-2.441c0-2.654.004-2.668.786-2.996.544-.229 2.021-.106 2.438.203zm34.478-.045c.635.427.981 1.014 1.16 1.966.134.707.126.96-.053 1.659-.37 1.443-1.099 2.078-2.384 2.077-1.06 0-1.842-.627-2.187-1.751-.496-1.617.03-3.486 1.135-4.03.651-.322 1.793-.283 2.329.079zM7.168 27.906l-.006 3.162-.645.717-.645.718-.001-3.88-.002-3.88h1.304l-.005 3.162zm2.061.717c.021 2.304-.013 3.814-.087 3.814-.067 0-.42-.334-.784-.743l-.663-.743v-3.017c0-1.66.042-3.06.093-3.11.05-.051.388-.076.75-.055l.657.039.034 3.815zm1.987-.713v3.167l-.717.708-.717.709v-7.751h1.434v3.167zm1.957.708v3.875l-.652-.643-.653-.642v-6.465h1.305v3.875zm76.11-1.912c1.34.239 1.23.075 1.23 1.811v1.54l-.576.53c-.883.814-1.805 1.229-2.895 1.3-1.061.07-1.694-.095-2.29-.597-1.041-.876-1.173-2.717-.266-3.72.735-.814 2.894-1.202 4.796-.864zM9.471 33.612c.08 0 .562-.439 1.07-.974l.926-.974.754.79c.415.433.77.83.79.88.019.052-.483.824-1.116 1.718l-1.15 1.624-1.232.034-1.232.034-1.141-1.625C6.513 34.226 6 33.436 6 33.365c0-.072.336-.494.748-.938l.748-.808.914.997c.504.548.981.996 1.062.996z" fill="#fff"/></svg>