<svg width="16" height="16" viewBox="0 0 16 16" fill="none" xmlns="http://www.w3.org/2000/svg">
<path d="M11.2324 7.23227C11.5448 6.91985 11.5448 6.41332 11.2324 6.1009C10.92 5.78848 10.4134 5.78848 10.101 6.1009L11.2324 7.23227ZM8.00004 9.33325L7.43436 9.89894C7.74677 10.2114 8.25331 10.2114 8.56573 9.89894L8.00004 9.33325ZM5.89906 6.1009C5.58664 5.78848 5.08011 5.78848 4.76769 6.1009C4.45527 6.41332 4.45527 6.91985 4.76769 7.23227L5.89906 6.1009ZM10.101 6.1009L7.43436 8.76757L8.56573 9.89894L11.2324 7.23227L10.101 6.1009ZM8.56573 8.76757L5.89906 6.1009L4.76769 7.23227L7.43436 9.89894L8.56573 8.76757Z" fill="#30D937"/>
</svg>
