<svg width="16" height="16" viewBox="0 0 16 16" fill="none" xmlns="http://www.w3.org/2000/svg">
<path d="M11.232 7.23236C11.5444 6.91994 11.5444 6.4134 11.232 6.10098C10.9196 5.78856 10.4131 5.78856 10.1007 6.10098L11.232 7.23236ZM7.99967 9.33334L7.43399 9.89902C7.74641 10.2114 8.25294 10.2114 8.56536 9.89902L7.99967 9.33334ZM5.89869 6.10098C5.58627 5.78856 5.07974 5.78856 4.76732 6.10098C4.4549 6.4134 4.4549 6.91994 4.76732 7.23236L5.89869 6.10098ZM10.1007 6.10098L7.43399 8.76765L8.56536 9.89902L11.232 7.23236L10.1007 6.10098ZM8.56536 8.76765L5.89869 6.10098L4.76732 7.23236L7.43399 9.89902L8.56536 8.76765Z" fill="#8F9498"/>
</svg>
