<svg width="24" height="24" viewBox="0 0 24 24" fill="none" xmlns="http://www.w3.org/2000/svg">
<path d="M19 12.8C19.4418 12.8 19.8 12.4418 19.8 12C19.8 11.5582 19.4418 11.2 19 11.2V12.8ZM5 11.2C4.55817 11.2 4.2 11.5582 4.2 12C4.2 12.4418 4.55817 12.8 5 12.8L5 11.2ZM19 11.2L5 11.2L5 12.8L19 12.8V11.2Z" fill="#84B5DF"/>
<path d="M10.4343 18.5657C10.7467 18.8781 11.2533 18.8781 11.5657 18.5657C11.8781 18.2533 11.8781 17.7467 11.5657 17.4343L10.4343 18.5657ZM5 12L4.43431 11.4343C4.28429 11.5843 4.2 11.7878 4.2 12C4.2 12.2122 4.28429 12.4157 4.43431 12.5657L5 12ZM11.5657 6.56569C11.8781 6.25327 11.8781 5.74673 11.5657 5.43431C11.2533 5.1219 10.7467 5.1219 10.4343 5.43431L11.5657 6.56569ZM11.5657 17.4343L5.56569 11.4343L4.43431 12.5657L10.4343 18.5657L11.5657 17.4343ZM5.56569 12.5657L11.5657 6.56569L10.4343 5.43431L4.43431 11.4343L5.56569 12.5657Z" fill="#84B5DF"/>
</svg>
