<svg width="24" height="26" viewBox="0 0 24 26" fill="none" xmlns="http://www.w3.org/2000/svg">
<path fill-rule="evenodd" clip-rule="evenodd" d="M11.6217 5.02148C11.4083 5.0439 11.1372 5.12058 10.8619 5.23629C9.81395 5.67683 3.2448 8.64287 3.02142 8.77628C2.51108 9.08117 2.11628 9.73028 2.02102 10.421C1.90957 11.2295 2.24927 12.1138 2.85048 12.5804C2.96176 12.6668 3.60964 12.9903 4.29022 13.2995L5.52764 13.8614L5.54935 16.0297C5.57053 18.1471 5.57344 18.2055 5.67235 18.5149C5.83595 19.0264 6.01908 19.3428 6.39244 19.7589C6.65407 20.0504 6.82618 20.1949 7.06898 20.3266C7.24808 20.4237 8.30313 20.84 9.41355 21.2516L11.4325 22L12.0186 21.9989L12.6048 21.9977L14.7106 21.2067C16.2726 20.6199 16.89 20.3659 17.1019 20.2231C17.5012 19.954 17.9659 19.3907 18.1572 18.9443C18.4318 18.3033 18.4432 18.1842 18.4438 15.9245L18.4445 13.8945L19.5625 13.3942C20.9689 12.7648 21.1451 12.6656 21.4223 12.3469C22.2581 11.3858 22.1766 9.8458 21.2453 8.99943C21.0147 8.78993 20.6341 8.60876 16.9722 6.96573C14.7611 5.97367 12.8349 5.13023 12.6916 5.09133C12.3524 4.99935 12.0316 4.97839 11.6217 5.02148ZM16.1836 8.79953C18.4425 9.81811 20.0853 10.5848 20.1124 10.6331C20.1443 10.6897 20.1451 10.7409 20.115 10.7945C20.0908 10.8376 19.5086 11.1254 18.8213 11.4341L17.5717 11.9953L15.9792 11.1085C15.1034 10.6208 14.2984 10.1989 14.1904 10.1711C13.5284 10.0002 12.9285 10.7752 13.1471 11.519C13.2543 11.8835 13.4171 12.0197 14.3603 12.5339C14.9668 12.8646 15.2277 13.0298 15.1852 13.0564C15.151 13.0778 14.4787 13.3844 13.6912 13.7378C12.3625 14.3341 12.2388 14.3803 11.9737 14.3803C11.6996 14.3803 11.5295 14.3095 7.80643 12.6433C5.67157 11.6879 3.89963 10.8827 3.86876 10.8539C3.83789 10.8251 3.81262 10.7517 3.81262 10.6907C3.81262 10.589 4.14134 10.4323 7.7311 8.82313C9.88629 7.857 11.6887 7.05542 11.7364 7.04187C12.0614 6.94955 12.2205 7.01243 16.1836 8.79953ZM9.18912 15.5169C10.1683 15.959 11.0932 16.3535 11.2444 16.3935C11.6404 16.4983 12.3648 16.4892 12.7606 16.3745C13.0092 16.3024 14.6071 15.6108 16.5694 14.7259C16.616 14.7049 16.6239 14.99 16.6129 16.2785L16.5992 17.8569L16.4797 18.0852C16.4139 18.2108 16.3015 18.3604 16.2299 18.4176C16.0814 18.5363 12.1409 20.0256 11.9752 20.0256C11.8096 20.0256 7.86904 18.5363 7.72051 18.4176C7.64891 18.3604 7.5365 18.2108 7.47077 18.0852L7.35119 17.8569L7.33812 16.2849C7.32992 15.2981 7.3406 14.713 7.36691 14.713C7.38992 14.713 8.20992 15.0747 9.18912 15.5169Z" fill="#D6E2F5"/>
</svg>
