<svg width="24" height="24" viewBox="0 0 54 54" fill="none" xmlns="http://www.w3.org/2000/svg">
    <g filter="url(#filter0_d_165_7827)">
        <path d="M19 29H35" stroke="#84B5DF" stroke-width="2" stroke-linecap="round" stroke-linejoin="round" />
        <path d="M23 29.0001V30.0001C23.2652 30.0001 23.5196 29.8947 23.7071 29.7072L23 29.0001ZM19 29.0001H18C18 29.5524 18.4477 30.0001 19 30.0001V29.0001ZM19 25.0001L18.2929 24.293C18.1054 24.4805 18 24.7349 18 25.0001H19ZM30.2929 13.7072L31 14.4143L31 14.4143L30.2929 13.7072ZM31.7071 13.7072L31 14.4143L31 14.4143L31.7071 13.7072ZM34.2929 16.293L35 15.5859V15.5859L34.2929 16.293ZM34.2929 17.7072L33.5858 17.0001L34.2929 17.7072ZM23 28.0001H19V30.0001H23V28.0001ZM20 29.0001V25.0001H18V29.0001H20ZM19.7071 25.7072L31 14.4143L29.5858 13.0001L18.2929 24.293L19.7071 25.7072ZM31 14.4143L33.5858 17.0001L35 15.5859L32.4142 13.0001L31 14.4143ZM33.5858 17.0001L22.2929 28.293L23.7071 29.7072L35 18.4143L33.5858 17.0001ZM33.5858 17.0001L35 18.4143C35.781 17.6333 35.781 16.3669 35 15.5859L33.5858 17.0001ZM31 14.4143H31L32.4142 13.0001C31.6332 12.219 30.3668 12.219 29.5858 13.0001L31 14.4143Z" fill="#84B5DF" />
        <path d="M27 17L31 21" stroke="#84B5DF" stroke-width="2" stroke-linecap="round" stroke-linejoin="round" />
    </g>
    <defs>
        <filter id="filter0_d_165_7827" x="-3" y="-3" width="60" height="60" filterUnits="userSpaceOnUse" color-interpolation-filters="sRGB">
            <feFlood flood-opacity="0" result="BackgroundImageFix" />
            <feColorMatrix in="SourceAlpha" type="matrix" values="0 0 0 0 0 0 0 0 0 0 0 0 0 0 0 0 0 0 127 0" result="hardAlpha" />
            <feOffset dy="6" />
            <feGaussianBlur stdDeviation="9" />
            <feColorMatrix type="matrix" values="0 0 0 0 0.505882 0 0 0 0 0.701961 0 0 0 0 0.878431 0 0 0 0.08 0" />
            <feBlend mode="normal" in2="BackgroundImageFix" result="effect1_dropShadow_165_7827" />
            <feBlend mode="normal" in="SourceGraphic" in2="effect1_dropShadow_165_7827" result="shape" />
        </filter>
    </defs>
</svg>