<svg width="24" height="24" viewBox="0 0 24 24" fill="none" xmlns="http://www.w3.org/2000/svg">
<path d="M4 17H11" stroke="#84B5DF" stroke-width="2" stroke-linecap="round" stroke-linejoin="round"/>
<path d="M20.7071 14.7071C21.0976 14.3166 21.0976 13.6834 20.7071 13.2929C20.3166 12.9024 19.6834 12.9024 19.2929 13.2929L20.7071 14.7071ZM16 18L15.2929 18.7071C15.6834 19.0976 16.3166 19.0976 16.7071 18.7071L16 18ZM14.7071 15.2929C14.3166 14.9024 13.6834 14.9024 13.2929 15.2929C12.9024 15.6834 12.9024 16.3166 13.2929 16.7071L14.7071 15.2929ZM19.2929 13.2929L15.2929 17.2929L16.7071 18.7071L20.7071 14.7071L19.2929 13.2929ZM16.7071 17.2929L14.7071 15.2929L13.2929 16.7071L15.2929 18.7071L16.7071 17.2929Z" fill="#84B5DF"/>
<path d="M4 12H15" stroke="#84B5DF" stroke-width="2" stroke-linecap="round" stroke-linejoin="round"/>
<path d="M4 7H15" stroke="#84B5DF" stroke-width="2" stroke-linecap="round" stroke-linejoin="round"/>
</svg>
