<svg  width="16" height="16" viewBox="0 0 16 16" fill="none" xmlns="http://www.w3.org/2000/svg">
    <path fill-rule="evenodd" clip-rule="evenodd" d="M5.33359 4.66665L5.33359 13.3333C5.33359 13.7013 5.03559 14 4.66692 14C4.29826 14 4.00026 13.7013 4.00026 13.3333L4.00026 4.61198L3.19359 5.65065C2.96759 5.94131 2.54826 5.99398 2.25826 5.76798C1.96692 5.54198 1.91426 5.12265 2.14026 4.83265L4.14026 2.25798C4.26759 2.09331 4.46426 1.99865 4.67292 1.99998C4.88026 2.00131 5.07559 2.09998 5.20026 2.26665L7.20026 4.93331C7.29026 5.05331 7.33359 5.19398 7.33359 5.33265C7.33359 5.53531 7.24159 5.73598 7.06692 5.86665C6.77226 6.08731 6.35426 6.02798 6.13359 5.73331L5.33359 4.66665ZM9.99997 11.3333L9.99997 2.66665C9.99997 2.29865 10.298 1.99999 10.6666 1.99999C11.0353 1.99999 11.3333 2.29865 11.3333 2.66665L11.3333 11.388L12.14 10.3493C12.366 10.0587 12.7853 10.006 13.0753 10.232C13.2446 10.3633 13.3333 10.56 13.3333 10.7587C13.3333 10.902 13.288 11.046 13.1933 11.1673L11.1933 13.742C11.066 13.9067 10.8693 14.0013 10.6606 14C10.4533 13.9987 10.258 13.9 10.1333 13.7333L8.1333 11.0667C7.91263 10.7713 7.97197 10.354 8.26663 10.1333C8.5613 9.91265 8.9793 9.97199 9.19997 10.2667L9.99997 11.3333Z" fill="#334049" />
    <mask id="mask0_826_69374" style="mask-type:alpha" maskUnits="userSpaceOnUse" x="2" y="2" width="12" height="12">
        <path fill-rule="evenodd" clip-rule="evenodd" d="M5.33359 4.66665L5.33359 13.3333C5.33359 13.7013 5.03559 14 4.66692 14C4.29826 14 4.00026 13.7013 4.00026 13.3333L4.00026 4.61198L3.19359 5.65065C2.96759 5.94131 2.54826 5.99398 2.25826 5.76798C1.96692 5.54198 1.91426 5.12265 2.14026 4.83265L4.14026 2.25798C4.26759 2.09331 4.46426 1.99865 4.67292 1.99998C4.88026 2.00131 5.07559 2.09998 5.20026 2.26665L7.20026 4.93331C7.29026 5.05331 7.33359 5.19398 7.33359 5.33265C7.33359 5.53531 7.24159 5.73598 7.06692 5.86665C6.77226 6.08731 6.35426 6.02798 6.13359 5.73331L5.33359 4.66665ZM9.99997 11.3333L9.99997 2.66665C9.99997 2.29865 10.298 1.99999 10.6666 1.99999C11.0353 1.99999 11.3333 2.29865 11.3333 2.66665L11.3333 11.388L12.14 10.3493C12.366 10.0587 12.7853 10.006 13.0753 10.232C13.2446 10.3633 13.3333 10.56 13.3333 10.7587C13.3333 10.902 13.288 11.046 13.1933 11.1673L11.1933 13.742C11.066 13.9067 10.8693 14.0013 10.6606 14C10.4533 13.9987 10.258 13.9 10.1333 13.7333L8.1333 11.0667C7.91263 10.7713 7.97197 10.354 8.26663 10.1333C8.5613 9.91265 8.9793 9.97199 9.19997 10.2667L9.99997 11.3333Z" fill="white" />
    </mask>
    <g mask="url(#mask0_826_69374)"></g>
</svg>